PathFileType	4	(X/Y/Z)	C:/Users/opensim2020/Desktop/walking_exp_matlab/subject06_walking12_straigt_04.trc																																																																																																																																														
DataRate	CameraRate	NumFrames	NumMarkers	Units	OrigDataRate	OrigDataStartFrame	OrigNumFrames																																																																																																																																										
100	100	7	48	mm	100	2833	181																																																																																																																																										
Frame#	Time	LFHD			RFHD			LBHD			RBHD			C7			T10			CLAV			STRN			RBAK			LSHO			LUPA			LELB			LFRM			LWRA			LWRB			LFIN			RSHO			RUPA			RELB			RFRM			RWRA			RWRB			RFIN			LASI			RASI			LPSI			RPSI			LTHI			LKNE			LTIB			LANK			LHEE			LTOE			RTHI			RKNE			RTIB			RANK			RHEE			RTOE			*39			*40			*41			*42			*43			*44			*45			*46			*47		
		X1	Y1	Z1	X2	Y2	Z2	X3	Y3	Z3	X4	Y4	Z4	X5	Y5	Z5	X6	Y6	Z6	X7	Y7	Z7	X8	Y8	Z8	X9	Y9	Z9	X10	Y10	Z10	X11	Y11	Z11	X12	Y12	Z12	X13	Y13	Z13	X14	Y14	Z14	X15	Y15	Z15	X16	Y16	Z16	X17	Y17	Z17	X18	Y18	Z18	X19	Y19	Z19	X20	Y20	Z20	X21	Y21	Z21	X22	Y22	Z22	X23	Y23	Z23	X24	Y24	Z24	X25	Y25	Z25	X26	Y26	Z26	X27	Y27	Z27	X28	Y28	Z28	X29	Y29	Z29	X30	Y30	Z30	X31	Y31	Z31	X32	Y32	Z32	X33	Y33	Z33	X34	Y34	Z34	X35	Y35	Z35	X36	Y36	Z36	X37	Y37	Z37	X38	Y38	Z38	X39	Y39	Z39	X40	Y40	Z40	X41	Y41	Z41	X42	Y42	Z42	X43	Y43	Z43	X44	Y44	Z44	X45	Y45	Z45	X46	Y46	Z46	X47	Y47	Z47	X48	Y48	Z48
																																																																																																																																																	
68	0.67	-1492.15234	1666.50549	422.931	-1360.8269	1654.59351	423.90643	-1492.68774	1607.47168	554.91736	-1364.43359	1601.94507	554.33173	-1430.70654	1452.99646	553.09436	-1414.36987	1125.10461	590.97681	-1435.96106	1375.31946	442.8515	-1439.48608	1199.18726	407.29224	-1339.32617	1286.35876	621.33221	-1594.0885	1403.83264	510.15271	-1660.03223	1205.36047	553.58881	-1667.83618	1096.50146	582.12415	-1689.50232	946.20801	589.78668	-1645.6665	820.96838	553.89453	-1685.76758	829.62213	613.11646	-1682.51526	740.42523	592.48138	-1273.07666	1411.52295	476.9072	-1177.93372	1213.65137	485.75888	-1164.10608	1096.53943	454.14471	-1155.98682	994.96484	391.04861	-1204.8667	901.67303	279.52911	-1160.76123	876.0647	323.00241	-1166.18713	828.26459	254.76863	-1529.6261	967.53247	414.61835	-1310.78601	966.49695	414.95285	-1503.04553	990.23712	574.48175	-1334.35181	993.95105	566.69666	-1598.67017	661.91913	407.89481	-1574.02637	508.74811	351.98303	-1569.69507	256.44424	383.79977	-1533.43579	83.16855	381.51721	-1483.87976	67.08494	416.74445	-1542.64221	54.69664	239.71532	-1270.27991	631.25079	497.57263	-1294.82483	506.03714	512.81543	-1305.89526	254.87659	612.34131	-1359.15955	77.29895	662.51575	-1405.34644	56.97326	704.39185	-1355.25366	34.89834	512.97693	-1432.87195	1701.38647	524.77338	NaN	NaN	NaN	NaN	NaN	NaN	NaN	NaN	NaN	NaN	NaN	NaN	NaN	NaN	NaN	NaN	NaN	NaN	NaN	NaN	NaN	NaN	NaN	NaN
69	0.68	-1492.72913	1664.90991	412.48657	-1361.32373	1653.13782	413.42673	-1493.14868	1605.76965	544.41132	-1364.84473	1600.40991	543.88092	-1430.90869	1451.4585	542.45532	-1414.47852	1123.67859	581.04138	-1436.16687	1373.73865	432.34036	-1439.52075	1197.59106	397.1153	-1339.30664	1285.02332	611.06787	-1594.34497	1402.29272	499.78186	-1659.98682	1204.65356	545.76666	-1667.4801	1096.15564	576.112	-1689.11072	945.99133	586.49792	-1645.23523	820.17096	552.8501	-1685.04138	829.94849	611.90961	-1681.88904	740.16034	592.84827	-1273.32288	1410.16077	466.53531	-1177.74329	1212.54626	474.67044	-1164.12317	1095.90039	441.73239	-1156.05383	995.89813	376.85693	-1205.77625	905.57886	263.37747	-1161.66357	878.73621	306.06323	-1167.35706	832.81036	236.60027	-1529.67615	966.31372	404.2356	-1310.93494	964.96753	405.35458	-1503.39746	988.68182	564.37518	-1334.6676	992.43701	556.86414	-1598.81702	659.63025	399.75388	-1573.79688	506.93976	342.75095	-1570.04224	253.15825	362.06683	-1533.73218	80.15712	349.58224	-1484.1582	62.50056	383.84012	-1542.63538	58.47051	206.31458	-1270.5448	630.27478	489.8237	-1294.82227	505.27753	506.81262	-1306.05908	255.24176	609.85168	-1359.25403	78.21465	662.06836	-1405.57202	58.26355	704.01776	-1355.27405	34.81577	512.96625	-1433.42139	1699.77209	514.35736	NaN	NaN	NaN	NaN	NaN	NaN	NaN	NaN	NaN	NaN	NaN	NaN	NaN	NaN	NaN	NaN	NaN	NaN	NaN	NaN	NaN	NaN	NaN	NaN
70	0.69	-1493.36145	1663.29407	402.02417	-1361.86145	1651.61682	402.90927	-1493.6272	1603.98889	533.85907	-1365.323	1598.77686	533.36652	-1431.20947	1449.94177	531.99481	-1414.8446	1122.20789	571.13586	-1436.44836	1372.11353	421.88297	-1439.61328	1195.90344	386.84399	-1339.39038	1283.64355	600.73468	-1594.61865	1400.75598	489.43073	-1659.89612	1203.92993	537.76227	-1667.18286	1095.86047	569.69562	-1688.67407	945.89258	582.74048	-1644.96179	819.45752	550.80505	-1684.25574	830.18414	610.13269	-1681.3645	740.08502	592.60638	-1273.63696	1408.71069	456.07928	-1177.64221	1211.41028	463.56952	-1163.84338	1095.18469	429.6709	-1156.25122	996.63983	362.92075	-1206.84009	909.26624	247.68343	-1162.64734	881.24841	289.40176	-1168.63318	837.27887	218.94392	-1529.81665	964.98419	393.72098	-1310.95935	963.64252	395.08865	-1503.91248	986.99939	554.06567	-1335.16748	990.84851	546.90881	-1599.28015	656.96484	391.92966	-1573.59949	504.95462	333.69199	-1570.34021	250.2849	341.06436	-1534.05676	78.09697	318.74808	-1484.47034	59.06305	352.03186	-1543.15015	62.90372	174.06352	-1270.77563	629.54974	482.11298	-1294.74109	504.6084	500.84238	-1306.12988	255.73904	607.34271	-1359.26013	79.26089	661.65289	-1405.69666	59.64897	703.67871	-1355.35632	34.7298	512.81085	-1434.03455	1698.099	503.85501	NaN	NaN	NaN	NaN	NaN	NaN	NaN	NaN	NaN	NaN	NaN	NaN	NaN	NaN	NaN	NaN	NaN	NaN	NaN	NaN	NaN	NaN	NaN	NaN
71	0.7	-1493.95947	1661.62939	391.59531	-1362.401	1650.06189	392.39578	-1494.18445	1602.18848	523.29919	-1365.82471	1597.07898	522.78314	-1431.51965	1448.31409	521.30298	-1415.3186	1120.65015	561.13263	-1436.80042	1370.45984	411.27155	-1439.82788	1194.22583	376.46899	-1339.60571	1282.24341	590.42468	-1595.00354	1399.17932	479.0556	-1659.90967	1203.0896	529.57538	-1666.95117	1095.50854	563.04114	-1687.82178	945.46094	578.15558	-1644.75598	818.84656	548.28278	-1683.52222	830.4306	607.84888	-1680.99194	740.17749	591.52344	-1273.98804	1407.18982	445.60345	-1177.58557	1210.18457	452.56183	-1163.72852	1094.35681	417.79669	-1156.56909	997.28174	349.14984	-1207.93054	912.75134	232.37752	-1163.65759	883.61023	273.12973	-1169.94348	841.49707	201.61797	-1530.14832	963.50488	383.09653	-1311.11133	962.26593	384.84576	-1504.59424	985.13995	543.53888	-1335.83496	989.23511	536.8725	-1600.15271	654.23468	384.0354	-1573.64099	502.74796	324.9718	-1570.55908	247.98093	320.77649	-1534.45447	77.07207	289.21729	-1484.73975	56.44572	321.18716	-1543.26465	68.17851	143.84978	-1270.94299	628.78546	474.49615	-1294.57581	503.96582	494.55179	-1306.02161	256.3512	604.74854	-1359.09424	80.42216	661.14441	-1405.56067	61.19471	703.32178	-1355.37988	34.72782	512.75049	-1434.63184	1696.35608	493.34714	NaN	NaN	NaN	NaN	NaN	NaN	NaN	NaN	NaN	NaN	NaN	NaN	NaN	NaN	NaN	NaN	NaN	NaN	NaN	NaN	NaN	NaN	NaN	NaN
72	0.71	-1494.62561	1659.9823	381.02283	-1362.99451	1648.50513	381.80884	-1494.76868	1600.56201	512.70386	-1366.3175	1595.3689	511.98956	-1431.86658	1446.74011	510.86496	-1415.90295	1119.02917	550.88611	-1437.21326	1368.83594	400.62268	-1440.12146	1192.5199	366.14133	-1339.84839	1280.83569	580.0976	-1595.45825	1397.63049	468.60367	-1660.00134	1202.21277	521.16919	-1666.79309	1095.12915	556.15582	-1687.94482	945.54456	573.80969	-1644.57446	818.34296	545.11816	-1682.82056	830.7121	604.9668	-1680.5127	740.42938	589.69427	-1274.46692	1405.58777	435.11731	-1177.71643	1208.92969	441.49338	-1163.7196	1093.41724	405.97852	-1156.8916	997.77997	335.74103	-1209.03833	915.93976	217.46843	-1164.64685	885.79987	257.44986	-1171.31677	845.36371	185.00351	-1530.63123	961.84637	372.30426	-1311.31018	960.91449	374.34882	-1505.51123	983.24658	532.79993	-1336.65112	987.72266	526.68512	-1601.2915	651.6319	375.73068	-1573.76929	500.42972	316.40149	-1570.54785	246.33136	301.38297	-1534.78064	76.93346	261.39499	-1484.98242	55.11098	292.43365	-1543.99146	73.91661	115.24892	-1271.15393	628.01324	466.53723	-1294.36572	503.22513	487.88342	-1305.75757	256.92401	601.66571	-1358.61353	81.62993	660.62408	-1405.0802	62.88086	702.99469	-1355.35437	34.70233	512.72327	-1435.30823	1694.68079	482.80859	NaN	NaN	NaN	NaN	NaN	NaN	NaN	NaN	NaN	NaN	NaN	NaN	NaN	NaN	NaN	NaN	NaN	NaN	NaN	NaN	NaN	NaN	NaN	NaN
73	0.72	-1495.24365	1658.40991	370.41315	-1363.59277	1646.97205	371.12509	-1495.39636	1598.92371	502.05655	-1366.79065	1593.71143	501.33008	-1432.45496	1445.19922	500.19589	-1416.72876	1117.44446	540.45898	-1437.67773	1367.2124	390.10349	-1440.53491	1191.00293	355.40921	-1340.30127	1279.35815	569.68964	-1595.92554	1396.05408	458.19821	-1660.23145	1201.32361	512.58942	-1666.78699	1094.66272	548.83508	-1687.61255	945.30511	568.50427	-1644.55798	817.79413	541.24976	-1682.28076	830.97083	601.58875	-1680.07031	740.47162	587.20569	-1275.02002	1404.00623	424.65549	-1177.92639	1207.54663	430.57019	-1163.77539	1092.34607	394.4646	-1157.28357	998.10443	322.64078	-1210.12988	918.85944	203.09201	-1165.69043	887.77838	242.29375	-1172.66174	848.97131	169.06647	-1531.14197	960.05615	361.2356	-1311.63843	959.45416	363.93335	-1506.55469	981.43701	521.86041	-1337.61365	986.29083	516.39618	-1602.60388	649.37909	366.77954	-1574.01904	498.14603	307.68964	-1570.65601	245.08168	283.4379	-1534.87402	77.49255	235.63051	-1484.63977	54.27271	265.35938	-1544.15088	79.78991	88.97754	-1270.8363	627.18988	458.5296	-1294.21387	502.41733	480.83838	-1305.37708	257.47018	598.0528	-1357.90466	83.02367	659.92181	-1404.2616	64.79822	702.64386	-1355.32715	34.64891	512.71814	-1435.89563	1693.03259	472.14441	NaN	NaN	NaN	NaN	NaN	NaN	NaN	NaN	NaN	NaN	NaN	NaN	NaN	NaN	NaN	NaN	NaN	NaN	NaN	NaN	NaN	NaN	NaN	NaN
74	0.73	-1495.92578	1656.86707	359.7529	-1364.27783	1645.48486	360.3779	-1495.8678	1597.3208	491.17618	-1367.37805	1592.25427	490.60886	-1433.08289	1443.72778	489.58179	-1417.59436	1115.78784	529.82806	-1438.27466	1365.70837	379.41675	-1441.05444	1189.52576	344.64365	-1340.96973	1277.8595	559.22015	-1596.55981	1394.59473	447.61392	-1660.6156	1200.51367	503.85226	-1666.88586	1094.15979	541.23779	-1687.45276	945.04614	562.71143	-1644.40759	817.30579	536.92853	-1681.66235	831.09039	597.20551	-1679.39453	740.45667	584.01349	-1275.62244	1402.46545	414.2012	-1178.20361	1206.17737	419.5354	-1163.90369	1091.26953	383.15088	-1157.77625	998.29578	309.8916	-1211.19153	921.47736	189.16086	-1166.71912	889.5412	227.61682	-1174.1145	852.06683	153.82019	-1531.62598	958.30377	350.13852	-1312.06909	957.97131	353.54492	-1507.69727	979.85419	510.82904	-1338.66882	984.92828	506.02353	-1603.76123	647.39441	357.18082	-1574.33252	496.10266	298.69385	-1570.35291	244.1033	266.4404	-1534.75403	78.4259	212.21936	-1484.71765	54.42339	240.90775	-1544.27625	85.10375	65.24393	-1270.92407	626.21777	450.11401	-1294.14612	501.41354	473.21118	-1305.07007	257.99991	594.1734	-1357.03162	84.55218	659.10944	-1403.20642	66.95684	702.27484	-1355.22278	34.65307	512.75281	-1436.56384	1691.57556	461.52222	NaN	NaN	NaN	NaN	NaN	NaN	NaN	NaN	NaN	NaN	NaN	NaN	NaN	NaN	NaN	NaN	NaN	NaN	NaN	NaN	NaN	NaN	NaN	NaN
